# xmcd
#
# Track frame offsets: 
#        150
#        15239
#        26582
#        43938
#        60481
#        71526
#        89686
#        99894
#        119107
#        132671
#        141596
#        158139
#        172988
#        185444
#
# Disc length: 2634 seconds
#
# Revision: 0
# Processed by: cddbd v1.5.2PL0 Copyright (c) Steve Scherf et al.
# Submitted via: ExactAudioCopyFreeDBPlugin 1.0
#
DISCID=c50a480e
DTITLE=Bean Creek - Nightbird
DYEAR=1900
DGENRE=Bluegrass
TTITLE0=Will You Be Lonesome, Too?
TTITLE1=Take a Message to Mother
TTITLE2=I Love You and You Don't Even Know
TTITLE3=Little Death
TTITLE4=Keep My Skillet Good and Greasy
TTITLE5=Satan's Jewel Crown
TTITLE6=Cattle in the Cane
TTITLE7=Wheeling
TTITLE8=Pretending I Don't Care
TTITLE9=Banjo Boy Chimes
TTITLE10=Your Selfish Heart
TTITLE11=If I Had my Life to Live Over Again
TTITLE12=Nightbird
TTITLE13=When My Times Comes to Go
EXTD=
EXTT0=
EXTT1=
EXTT2=
EXTT3=
EXTT4=
EXTT5=
EXTT6=
EXTT7=
EXTT8=
EXTT9=
EXTT10=
EXTT11=
EXTT12=
EXTT13=
PLAYORDER=
